<svg width="622" height="755" xmlns="http://www.w3.org/2000/svg" xmlns:xlink="http://www.w3.org/1999/xlink" xml:space="preserve" overflow="hidden"><defs><linearGradient x1="924" y1="544" x2="1386" y2="544" gradientUnits="userSpaceOnUse" spreadMethod="reflect" id="fill0"><stop offset="0" stop-color="#FFC000"/><stop offset="0.3" stop-color="#FF0000"/><stop offset="0.7" stop-color="#92D050"/><stop offset="1" stop-color="#00B0F0"/></linearGradient></defs><g transform="translate(-844 -80)"><path d="M858 326.002C858 271.325 902.325 227 957.002 227L1353 227C1407.68 227 1452 271.325 1452 326.002L1452 721.998C1452 776.675 1407.68 821 1353 821L957.002 821C902.325 821 858 776.675 858 721.998Z" stroke="#000000" stroke-width="27.5" stroke-miterlimit="8" fill="#262626" fill-rule="evenodd"/><path d="M858 358.502C858 307.415 899.415 266 950.502 266L1359.5 266C1410.59 266 1452 307.415 1452 358.502L1452 728.498C1452 779.585 1410.59 821 1359.5 821L950.502 821C899.415 821 858 779.585 858 728.498Z" stroke="#000000" stroke-width="27.5" stroke-miterlimit="8" fill="#404040" fill-rule="evenodd"/><path d="M924 390.002C924 347.475 958.475 313 1001 313L1309 313C1351.53 313 1386 347.475 1386 390.002L1386 697.999C1386 740.525 1351.53 775 1309 775L1001 775C958.475 775 924 740.525 924 697.999Z" stroke="#000000" stroke-width="27.5" stroke-miterlimit="8" fill="url(#fill0)" fill-rule="evenodd"/><path d="M1002 251.222C1002 185.93 1070.5 133 1155 133 1239.5 133 1308 185.93 1308 251.222 1282.5 270.926 1027.5 270.926 1002 251.222Z" fill-rule="evenodd"/><path d="M1155 133.037 924 87" stroke="#000000" stroke-width="13.75" stroke-miterlimit="8" fill="none" fill-rule="evenodd"/><path d="M0 0 152.558 46.0372" stroke="#000000" stroke-width="13.75" stroke-miterlimit="8" fill="none" fill-rule="evenodd" transform="matrix(1 0 0 -1 1155 133.037)"/></g></svg>