<svg width="3021" height="755" xmlns="http://www.w3.org/2000/svg" xmlns:xlink="http://www.w3.org/1999/xlink" xml:space="preserve" overflow="hidden"><defs><clipPath id="clip0"><rect x="844" y="80" width="3021" height="755"/></clipPath><linearGradient x1="924" y1="544" x2="1386" y2="544" gradientUnits="userSpaceOnUse" spreadMethod="reflect" id="fill1"><stop offset="0" stop-color="#FFC000"/><stop offset="0.3" stop-color="#FF0000"/><stop offset="0.7" stop-color="#92D050"/><stop offset="1" stop-color="#00B0F0"/></linearGradient></defs><g clip-path="url(#clip0)" transform="translate(-844 -80)"><path d="M858 326.002C858 271.325 902.325 227 957.002 227L1353 227C1407.68 227 1452 271.325 1452 326.002L1452 721.998C1452 776.675 1407.68 821 1353 821L957.002 821C902.325 821 858 776.675 858 721.998Z" stroke="#000000" stroke-width="27.5" stroke-miterlimit="8" fill="#262626" fill-rule="evenodd"/><path d="M858 358.502C858 307.415 899.415 266 950.502 266L1359.5 266C1410.59 266 1452 307.415 1452 358.502L1452 728.498C1452 779.585 1410.59 821 1359.5 821L950.502 821C899.415 821 858 779.585 858 728.498Z" stroke="#000000" stroke-width="27.5" stroke-miterlimit="8" fill="#404040" fill-rule="evenodd"/><path d="M924 390.002C924 347.475 958.475 313 1001 313L1309 313C1351.53 313 1386 347.475 1386 390.002L1386 697.999C1386 740.525 1351.53 775 1309 775L1001 775C958.475 775 924 740.525 924 697.999Z" stroke="#000000" stroke-width="27.5" stroke-miterlimit="8" fill="url(#fill1)" fill-rule="evenodd"/><path d="M1002 251.222C1002 185.93 1070.5 133 1155 133 1239.5 133 1308 185.93 1308 251.222 1282.5 270.926 1027.5 270.926 1002 251.222Z" fill-rule="evenodd"/><path d="M1155 133.037 924 87" stroke="#000000" stroke-width="13.75" stroke-miterlimit="8" fill="none" fill-rule="evenodd"/><path d="M0 0 152.558 46.0372" stroke="#000000" stroke-width="13.75" stroke-miterlimit="8" fill="none" fill-rule="evenodd" transform="matrix(1 0 0 -1 1155 133.037)"/><path d="M3210.04 390.689C3230.98 389.341 3251.99 390.451 3272.97 390.094 3305.6 390.55 3339.68 387.279 3370.61 399.987 3388.92 407.104 3405.21 421.418 3411.45 440.41 3418.76 462.951 3416.97 489.913 3401.52 508.747 3394.92 517.252 3385.09 522.05 3376.33 527.938 3392.98 532.438 3408.07 543.837 3415.2 559.737 3423.7 577.54 3423.55 598.396 3418.5 617.15 3413.73 634.874 3401.84 650.654 3385.51 659.278 3362.88 672.145 3336.19 674.226 3310.7 673.949 3277.14 673.651 3243.55 674.464 3210 673.552 3210.36 579.264 3210.26 484.977 3210.04 390.689M3269.07 436.029C3268.95 460.414 3268.85 484.798 3269.15 509.203 3283.02 509.262 3296.92 509.302 3310.8 509.163 3323.02 508.826 3336.35 507.379 3345.96 499.052 3352.87 493.383 3356.55 484.58 3356.81 475.758 3357.42 464.597 3355.3 451.75 3345.88 444.514 3335.81 437.119 3322.78 435.93 3310.68 435.85 3296.8 435.91 3282.94 435.672 3269.07 436.029M3269.13 549.23C3268.83 575.557 3268.95 601.905 3269.07 628.252 3282.28 628.51 3295.49 628.232 3308.72 628.371 3319.03 628.331 3329.65 628.708 3339.58 625.358 3351.96 621.293 3362.15 609.834 3362.98 596.592 3364.02 584.32 3363.26 570.403 3354.38 560.926 3346.58 551.965 3334.12 549.368 3322.74 549.249 3304.88 549.111 3287.01 549.17 3269.13 549.23Z" fill="#131313" fill-rule="evenodd" fill-opacity="0.501961"/><path d="M3531.3 460.731C3558.64 456.343 3588.38 459.897 3611.54 476.019 3635.33 492.438 3648.43 520.552 3651.88 548.685 3655.25 579.36 3651.49 612.398 3633.72 638.407 3618.83 661.14 3592.63 675.078 3565.86 677.381 3538.92 679.942 3509.69 674.84 3488.7 656.713 3463.78 636.005 3452.7 602.59 3453.07 570.902 3452.26 544.695 3458.23 517.574 3473.75 496.072 3487.41 477.389 3508.58 464.721 3531.3 460.731M3541.24 504.311C3532.34 506.654 3524.58 512.65 3519.89 520.552 3510.86 534.906 3509.32 552.398 3509.06 568.957 3509.48 586.369 3510.96 605.171 3521.69 619.665 3536.58 639.718 3571.77 639.102 3585.13 617.659 3596 600.287 3597.15 578.864 3596.17 558.93 3594.96 542.431 3591.44 524.443 3578.93 512.59 3569.11 503.06 3554.1 501.095 3541.24 504.311Z" fill="#131313" fill-rule="evenodd" fill-opacity="0.501961"/><path d="M3672.66 463.456C3692.41 462.861 3712.21 462.881 3731.98 463.436 3739.69 476.575 3746.62 490.15 3754.02 503.467 3758.36 511.018 3761.51 519.322 3767.25 526 3778.75 506.539 3789.31 486.563 3800.52 466.964 3802.64 461.811 3808.92 463.396 3813.34 463 3829.39 463.396 3845.46 462.584 3861.51 463.535 3856.48 474.871 3849.48 485.176 3843.48 495.996 3830.96 517.796 3818.26 539.516 3805.71 561.315 3803.67 564.248 3803.39 567.835 3805.63 570.748 3825.37 605.112 3845.56 639.238 3865 673.78 3845.19 674.018 3825.35 674.018 3805.55 673.82 3791.92 651.842 3780.94 628.279 3766.74 606.678 3754.61 629.111 3741.69 651.109 3729.58 673.542 3709.73 674.276 3689.85 673.978 3670 673.681 3688.92 638.168 3710.3 603.923 3729.92 568.767 3731.05 567.062 3730.93 564.982 3729.88 563.277 3711.04 529.904 3691.02 497.126 3672.66 463.456Z" fill="#131313" fill-rule="evenodd" fill-opacity="0.501961"/><path d="M2460.47 416.701C2468.05 414.365 2476.54 414.345 2484 417.2 2490.26 420.015 2490.92 428 2491 434.109 2491.02 440.697 2490.07 449.521 2482.99 452.076 2475.2 454.671 2466.26 454.771 2458.63 451.577 2452.37 448.483 2452.08 440.278 2452 434.109 2451.98 427.561 2453.3 418.797 2460.47 416.701Z" fill="#272727" fill-rule="evenodd"/><path d="M2707.38 416.809C2715.2 414.414 2724.03 414.294 2731.77 417.069 2738.26 419.903 2739.02 427.926 2739 434.113 2738.92 440.34 2738.42 448.543 2731.95 451.577 2724.11 454.75 2714.92 454.691 2706.94 452.076 2699.73 449.382 2698.87 440.7 2699.01 434.113 2698.99 427.627 2700.21 419.164 2707.38 416.809Z" fill="#272727" fill-rule="evenodd"/><path d="M2209.33 422.389C2217.71 420.494 2226.57 420.77 2235.05 421.875 2239.48 422.112 2241.25 426.475 2242.52 430.029 2266.39 499.496 2290.1 569.024 2313.99 638.472 2316.99 632.629 2318.84 626.311 2320.82 620.093 2342.15 556.409 2363.5 492.725 2384.67 429.002 2385.78 426.416 2386.53 422.823 2389.87 422.29 2399.4 420.336 2409.43 420.651 2418.9 422.902 2419.64 430.877 2415.99 438.201 2413.44 445.525 2387.49 519.138 2361.45 592.732 2335.5 666.326 2334.23 671.439 2329.3 674.223 2324.3 674.381 2314.84 674.953 2305.01 675.861 2295.82 673.157 2291.61 672.11 2290.3 667.688 2288.91 664.155 2261.8 587.264 2234.53 510.413 2207.33 433.542 2206.26 429.89 2204.19 423.909 2209.33 422.389Z" fill="#272727" fill-rule="evenodd"/><path d="M1586.59 425.695C1591.33 420.802 1598.66 421.654 1604.83 421.456 1613.03 421.753 1622.07 420.683 1629.37 425.26 1637.31 430.906 1641.2 440.258 1645.8 448.519 1675.55 505.123 1706.54 561.112 1735.05 618.37 1736.33 620.747 1737.83 623.006 1739.41 625.225 1740.32 613.694 1739.45 602.144 1739.59 590.593 1739.53 536.466 1739.43 482.319 1739.61 428.192 1738.96 422.129 1746.58 421.495 1750.9 421.158 1757.99 421.198 1766.48 419.772 1772.28 424.784 1773.37 431.124 1772.88 437.583 1772.95 443.982 1772.88 515.346 1772.99 586.71 1772.9 658.054 1773.27 664.275 1770.63 671.407 1764.15 673.309 1756.65 675.152 1748.75 674.637 1741.13 673.904 1729.98 672.457 1723.32 662.155 1718.25 653.14 1699.99 619.182 1681.89 585.145 1663.72 551.147 1649.63 524.44 1634.82 498.109 1621.71 470.907 1619.82 467.063 1617.77 463.28 1615.55 459.614 1617 517.783 1616.11 575.991 1616.36 634.18 1616.09 646.999 1617.05 659.857 1615.67 672.636 1606.06 675.172 1595.58 676.162 1585.98 673.091 1582.11 671.744 1583.41 667.128 1583 663.998 1583.06 588.651 1583.02 513.286 1583 437.92 1583.12 433.68 1583.16 428.747 1586.59 425.695Z" fill="#272727" fill-rule="evenodd"/><path d="M2009.72 425.856C2010.43 421.723 2015.15 422.257 2018.32 422.04 2073.87 422.02 2129.41 422.119 2184.95 422 2187.97 422.099 2191.16 421.98 2193.99 423.325 2197.95 430.365 2197.58 439.402 2195.32 446.956 2194.17 450.575 2190.03 450.397 2186.97 450.437 2164.48 450.476 2141.99 450.338 2119.5 450.457 2119.32 515.022 2119.3 579.588 2119.22 644.154 2119.16 653.666 2119.68 663.217 2118.53 672.689 2108.84 675.201 2098.32 676.13 2088.67 673.085 2084.74 671.8 2086.13 667.133 2085.7 664.028 2085.74 592.837 2085.77 521.647 2085.7 450.457 2063.22 450.318 2040.75 450.457 2018.3 450.437 2015.25 450.239 2010.89 450.812 2009.8 447.055 2007.36 440.352 2007.46 432.619 2009.72 425.856Z" fill="#272727" fill-rule="evenodd"/><path d="M1859.05 500.451C1878.25 485.965 1903.74 482.589 1926.99 486.517 1945.27 489.596 1962.58 499.958 1972.57 515.747 1984.05 533.53 1986.82 555.517 1985.81 576.26 1985.71 583.01 1979.23 588.003 1972.7 587.529 1934.52 587.786 1896.31 587.234 1858.14 587.786 1858.5 604.404 1860.69 622.582 1872.43 635.371 1883.23 647.233 1899.97 651.161 1915.46 650.983 1931.14 651.259 1946.73 647.845 1961.18 641.865 1966.02 639.773 1971.08 637.977 1976.42 637.799 1979.01 645.536 1980.37 655.049 1975.67 662.233 1967.31 668.391 1956.75 670.503 1946.89 673.088 1921.71 678.417 1894.35 679.364 1870.28 669.121 1852.51 661.621 1838.7 646.227 1832.31 628.167 1824.52 606.181 1823.48 582.181 1826.74 559.227 1829.98 536.668 1840.36 514.247 1859.05 500.451M1876.05 521.471C1864.25 532.168 1858.84 548.392 1858.3 563.984 1889.97 563.865 1921.61 563.747 1953.26 564.063 1955.17 545.293 1948.02 523.405 1930.07 514.682 1912.8 506.925 1890.4 508.326 1876.05 521.471Z" fill="#272727" fill-rule="evenodd"/><path d="M2580.82 487.045C2601.16 482.959 2623.62 484.656 2641.79 495.236 2647.94 498.157 2648.1 505.618 2648.06 511.501 2647.82 515.468 2648 520.284 2644.66 523.107 2640.21 523.107 2636.57 520.008 2632.68 518.271 2617.42 509.981 2598.38 506.665 2581.93 513.316 2568.72 518.725 2563.58 537.299 2572.6 548.47 2581.18 558.833 2594.56 562.958 2606.6 567.873 2621.27 573.795 2637.13 579.578 2647.49 592.191 2658.77 605.929 2659.11 625.766 2653.22 641.853 2647.19 657.979 2631.99 669.032 2615.72 673.414 2593.69 679.415 2569.63 677.776 2548.46 669.309 2542.68 666.644 2535.33 663.723 2533.93 656.735 2532.7 649.926 2532.3 642.464 2535.21 636.01 2536.04 635.694 2537.74 635.043 2538.59 634.707 2545.91 637.056 2552.03 641.971 2559.13 644.853 2575.6 652.274 2595.73 654.406 2612.28 646.116 2621.23 641.872 2626.11 631.668 2625.22 622.016 2625.09 611.692 2616.27 604.429 2607.91 599.968 2589.22 590.355 2567.3 586.19 2551.56 571.485 2532.38 553.898 2532.98 520.442 2551.32 502.5 2559.35 494.585 2569.93 489.63 2580.82 487.045Z" fill="#272727" fill-rule="evenodd"/><path d="M2850.37 487.016C2866.9 484.034 2884.21 484.251 2900.52 488.398 2916.48 492.366 2931.24 501.725 2940.75 515.229 2953.09 532.347 2957.42 553.868 2957.93 574.599 2958.61 598.054 2954.29 622.537 2941.06 642.32 2927.99 661.807 2905.55 673.989 2882.37 676.24 2858.97 678.629 2833.46 675.845 2814.2 661.294 2796.85 648.322 2787.66 627.236 2784.71 606.268 2780.78 577.758 2782.95 546.74 2798.44 521.725 2809.59 503.265 2829.35 491.004 2850.37 487.016M2860.24 512.623C2842.95 514.835 2828.38 527.668 2822.5 543.799 2814.53 565.082 2814.71 588.834 2819.7 610.789 2823.45 627.828 2835.77 643.643 2853.24 647.967 2871.15 652.271 2892.37 650.474 2906.2 637.127 2920.79 623.188 2924.55 601.924 2924.79 582.575 2924.91 563.286 2922.16 542.318 2909.32 527.016 2897.38 513.196 2877.52 509.918 2860.24 512.623Z" fill="#272727" fill-rule="evenodd"/><path d="M3063.62 492.702C3079.45 483.967 3098.78 482.959 3115.92 488.177 3130.7 492.84 3142.95 504.361 3148.9 518.629 3156.54 536.276 3155.99 555.919 3155.91 574.752 3155.57 606.805 3156.58 638.937 3155.43 670.971 3146.59 677.077 3133.65 675.358 3123.97 671.643 3123.66 637.376 3123.93 603.11 3123.85 568.823 3123.97 553.587 3122.92 537.007 3113.23 524.459 3104.3 512.997 3087.56 510.23 3074.35 515.013 3060.44 520.21 3050.09 531.513 3040.43 542.323 3035.78 546.592 3037.44 553.35 3037.13 558.943 3037.32 593.881 3037.13 628.839 3037.24 663.778 3036.83 666.92 3038.04 671.406 3034.34 672.947 3025.95 675.437 3016.61 675.437 3008.22 673.105 3004.04 671.86 3005.41 666.959 3005.01 663.738 3005.11 615.639 3005.03 567.519 3005.07 519.419 3005.07 509.578 3004.71 499.717 3005.6 489.915 3013.97 487.169 3023.43 486.556 3031.86 489.362 3036.43 497.049 3033.19 507.049 3034.16 515.685 3043.64 507.622 3052.2 498.156 3063.62 492.702Z" fill="#272727" fill-rule="evenodd"/><path d="M2456.55 490.459C2466.41 487.223 2477.31 487.125 2487.17 490.499 2488.8 516.647 2487.45 542.914 2487.9 569.121 2487.8 603.341 2488.07 637.56 2487.74 671.78 2478.76 675.805 2468.22 675.825 2458.89 673.122 2455.51 672.391 2456.29 668.425 2456.02 665.899 2456 611.925 2456.06 557.971 2456 503.997 2456.02 499.478 2456.18 494.959 2456.55 490.459Z" fill="#272727" fill-rule="evenodd"/><path d="M2707.61 489.192C2715.26 487.672 2723.49 487.435 2731.06 489.488 2735.86 490.535 2734.65 496.339 2735 499.992 2734.77 555.945 2735.16 611.898 2734.8 667.85 2735.63 672.766 2730.18 674.385 2726.39 674.622 2719.04 675.057 2711.15 675.768 2704.36 672.431 2702.83 669.943 2703.2 666.863 2703.01 664.08 2703.09 608.719 2703.07 553.339 2703.03 497.978 2702.87 494.464 2703.22 489.706 2707.61 489.192Z" fill="#272727" fill-rule="evenodd"/></g></svg>